<svg width="43" height="45" viewBox="0 0 43 45" fill="none" xmlns="http://www.w3.org/2000/svg">
<path d="M21.5 13.1627C26.4476 13.1627 30.4584 17.2728 30.4584 22.3428C30.4584 27.4128 26.4476 31.5229 21.5 31.5229C16.5525 31.5229 12.5417 27.4128 12.5417 22.3428C12.5417 17.2728 16.5525 13.1627 21.5 13.1627ZM8.95837 23.2608V21.4248C8.95837 20.9178 8.5573 20.5068 8.06254 20.5068H4.47921C3.98445 20.5068 3.58337 20.9178 3.58337 21.4248L3.58337 23.2608C3.58337 23.7678 3.98445 24.1788 4.47921 24.1788H8.06254C8.5573 24.1788 8.95837 23.7678 8.95837 23.2608ZM34.0417 21.4248V23.2608C34.0417 23.7678 34.4428 24.1788 34.9375 24.1788H38.5209C39.0156 24.1788 39.4167 23.7678 39.4167 23.2608V21.4248C39.4167 20.9178 39.0156 20.5068 38.5209 20.5068H34.9375C34.4428 20.5068 34.0417 20.9178 34.0417 21.4248ZM19.7084 4.90066V8.57269C19.7084 9.07969 20.1095 9.49069 20.6042 9.49069H22.3959C22.8906 9.49069 23.2917 9.07969 23.2917 8.57269V4.90066C23.2917 4.39365 22.8906 3.98265 22.3959 3.98265H20.6042C20.1095 3.98265 19.7084 4.39365 19.7084 4.90066ZM22.3959 35.1949H20.6042C20.1095 35.1949 19.7084 35.6059 19.7084 36.1129V39.7849C19.7084 40.2919 20.1095 40.7029 20.6042 40.7029H22.3959C22.8906 40.7029 23.2917 40.2919 23.2917 39.7849V36.1129C23.2917 35.6059 22.8906 35.1949 22.3959 35.1949ZM13.2584 12.6119C13.428 12.4396 13.5234 12.2049 13.5234 11.9601C13.5234 11.7154 13.428 11.4807 13.2584 11.3083L10.75 8.71957C10.5818 8.54578 10.3529 8.44802 10.114 8.44802C9.87514 8.44802 9.64616 8.54578 9.47796 8.71957L8.22379 10.0048C8.0542 10.1772 7.95881 10.4118 7.95881 10.6566C7.95881 10.9013 8.0542 11.136 8.22379 11.3083L10.75 13.8971C10.9182 14.0709 11.1472 14.1687 11.3861 14.1687C11.6249 14.1687 11.8539 14.0709 12.0221 13.8971L13.2584 12.6119ZM29.7417 32.0737C29.5721 32.2461 29.4767 32.4807 29.4767 32.7255C29.4767 32.9702 29.5721 33.2049 29.7417 33.3773L32.25 35.966C32.4182 36.1398 32.6472 36.2376 32.8861 36.2376C33.1249 36.2376 33.3539 36.1398 33.5221 35.966L34.7763 34.6808C34.9459 34.5084 35.0413 34.2738 35.0413 34.029C35.0413 33.7843 34.9459 33.5496 34.7763 33.3773L32.25 30.7885C32.0818 30.6147 31.8529 30.5169 31.614 30.5169C31.3751 30.5169 31.1462 30.6147 30.978 30.7885L29.7417 32.0737ZM29.7417 11.3267C29.5721 11.4991 29.4767 11.7337 29.4767 11.9785C29.4767 12.2233 29.5721 12.4579 29.7417 12.6303L30.9959 13.9155C31.1641 14.0893 31.3931 14.187 31.6319 14.187C31.8708 14.187 32.0997 14.0893 32.268 13.9155L34.7942 11.3267C34.9638 11.1543 35.0592 10.9197 35.0592 10.6749C35.0592 10.4301 34.9638 10.1955 34.7942 10.0231L33.54 8.73793C33.3718 8.56414 33.1429 8.46638 32.904 8.46638C32.6651 8.46638 32.4362 8.56414 32.268 8.73793L29.7417 11.3267ZM13.2584 33.3589C13.428 33.1865 13.5234 32.9519 13.5234 32.7071C13.5234 32.4623 13.428 32.2277 13.2584 32.0553L12.0042 30.7701C11.651 30.4253 11.0935 30.4334 10.75 30.7885L8.20587 33.3589C8.03628 33.5313 7.94089 33.7659 7.94089 34.0107C7.94089 34.2555 8.03628 34.4901 8.20587 34.6625L9.46004 35.9477C9.62825 36.1215 9.85722 36.2192 10.0961 36.2192C10.3349 36.2192 10.5639 36.1215 10.7321 35.9477L13.2584 33.3589Z" fill="#222223"/>
</svg>
