<svg width="32" height="50" viewBox="0 0 32 50" fill="none" xmlns="http://www.w3.org/2000/svg">
<path d="M31.225 20.5501L13.725 49.1001C13.3816 49.6549 12.7775 49.9947 12.125 50.0001H11.625C11.2748 49.9994 10.9403 49.8548 10.7 49.6001C10.4609 49.3444 10.3426 48.9986 10.375 48.6501L11.775 32.5001H2.84999C2.17851 32.4928 1.56072 32.1316 1.225 31.5501L0.749996 30.7251C0.511395 30.3336 0.511395 29.8416 0.749996 29.4501L18.25 0.900066C18.6027 0.329992 19.2297 -0.0120216 19.9 6.59545e-05H20.4C20.7502 0.000715204 21.0847 0.145364 21.325 0.400066C21.5641 0.655751 21.6824 1.00151 21.65 1.35007L20.225 17.5001H29.15C29.8215 17.5073 30.4393 17.8685 30.775 18.4501L31.25 19.2751C31.481 19.6712 31.4713 20.1632 31.225 20.5501Z" fill="white"/>
</svg>
