<svg width="36" height="56" viewBox="0 0 36 56" fill="none" xmlns="http://www.w3.org/2000/svg">
<path d="M28 0.5H8C3.85786 0.5 0.5 3.85786 0.5 8V48C0.5 52.1421 3.85786 55.5 8 55.5H28C32.1421 55.5 35.5 52.1421 35.5 48V8C35.5 3.85786 32.1421 0.5 28 0.5ZM28 50.5H8C6.61929 50.5 5.5 49.3807 5.5 48V8C5.5 6.61929 6.61929 5.5 8 5.5C9.38071 5.5 10.5 6.61929 10.5 8C10.5 9.38071 11.6193 10.5 13 10.5H23C24.3807 10.5 25.5 9.38071 25.5 8C25.5 6.61929 26.6193 5.5 28 5.5C29.3807 5.5 30.5 6.61929 30.5 8V48C30.5 49.3807 29.3807 50.5 28 50.5Z" fill="#222223"/>
</svg>
