<svg width="72" height="72" viewBox="0 0 72 72" fill="none" xmlns="http://www.w3.org/2000/svg">
<g clip-path="url(#clip0_14_538)">
<path d="M64.1064 47.3534H62.6203V17.7575C62.6203 14.4885 59.959 11.8384 56.676 11.8384H38.8428V7.39898C38.8428 6.58171 38.1775 5.91919 37.3568 5.91919H34.3846C33.5638 5.91919 32.8985 6.58171 32.8985 7.39898V11.8384H15.0654C11.7824 11.8384 9.12099 14.4885 9.12099 17.7575V47.3534H7.6349C6.81415 47.3534 6.1488 48.0159 6.1488 48.8331V51.7927C6.1488 52.61 6.81415 53.2725 7.6349 53.2725H21.9311L15.4815 62.4472C15.2163 62.8196 15.0712 63.2634 15.0654 63.7199V64.371C15.0654 64.7796 15.398 65.1109 15.8084 65.1109H19.3156C20.2882 65.1093 21.1984 64.634 21.7528 63.8382L29.1832 53.2725H42.5581L49.9885 63.8382C50.5429 64.634 51.4532 65.1093 52.4257 65.1109H55.9329C56.3433 65.1109 56.676 64.7796 56.676 64.371V63.7199C56.6702 63.2634 56.525 62.8196 56.2599 62.4472L49.8102 53.2725H64.1064C64.9272 53.2725 65.5925 52.61 65.5925 51.7927V48.8331C65.5925 48.0159 64.9272 47.3534 64.1064 47.3534ZM56.676 45.4592C56.676 46.5053 55.8243 47.3534 54.7738 47.3534C54.1986 47.3414 53.6568 47.0825 53.2877 46.6431L42.3797 33.1178C42.0977 32.7677 41.6713 32.564 41.2206 32.564C40.7699 32.564 40.3435 32.7677 40.0614 33.1178L33.2551 41.6414C32.9736 42.0025 32.5403 42.2139 32.0811 42.2139C31.622 42.2139 31.1886 42.0025 30.9071 41.6414L27.9349 37.6163C27.6481 37.2432 27.2031 37.0243 26.7312 37.0243C26.2593 37.0243 25.8143 37.2432 25.5275 37.6163L18.8995 46.4951C18.4785 47.054 17.8178 47.383 17.1162 47.383C16.5813 47.4248 16.0535 47.2397 15.6629 46.8734C15.2723 46.507 15.0553 45.9934 15.0654 45.4592L15.065 17.7575H56.676V45.4592ZM28.4402 32.5554C30.9024 32.5554 32.8985 30.5679 32.8985 28.1161C32.8985 25.6643 30.9024 23.6767 28.4402 23.6767C25.978 23.6767 23.9819 25.6643 23.9819 28.1161C23.9819 30.5679 25.978 32.5554 28.4402 32.5554Z" fill="#EF8354"/>
</g>
<defs>
<clipPath id="clip0_14_538">
<rect x="0.204407" width="71.3325" height="71.03" fill="white"/>
</clipPath>
</defs>
</svg>
