<svg width="54" height="54" viewBox="0 0 54 54" fill="none" xmlns="http://www.w3.org/2000/svg">
<path d="M47.4167 0.75H6.58333C3.36167 0.75 0.75 3.36167 0.75 6.58333V47.4167C0.75 50.6383 3.36167 53.25 6.58333 53.25H47.4167C50.6383 53.25 53.25 50.6383 53.25 47.4167V6.58333C53.25 3.36167 50.6383 0.75 47.4167 0.75ZM16.7917 43.0417C16.7917 43.8471 16.1387 44.5 15.3333 44.5H10.9583C10.1529 44.5 9.5 43.8471 9.5 43.0417V22.625C9.5 21.8196 10.1529 21.1667 10.9583 21.1667H15.3333C16.1387 21.1667 16.7917 21.8196 16.7917 22.625V43.0417ZM13.1458 18.25C10.7296 18.25 8.77083 16.2912 8.77083 13.875C8.77083 11.4588 10.7296 9.5 13.1458 9.5C15.5621 9.5 17.5208 11.4588 17.5208 13.875C17.5208 16.2912 15.5621 18.25 13.1458 18.25ZM44.5 43.0417C44.5 43.8471 43.8471 44.5 43.0417 44.5H38.6667C37.8613 44.5 37.2083 43.8471 37.2083 43.0417V32.1042C37.2083 29.6879 35.2496 27.7292 32.8333 27.7292C30.4171 27.7292 28.4583 29.6879 28.4583 32.1042V43.0417C28.4583 43.8471 27.8054 44.5 27 44.5H22.625C21.8196 44.5 21.1667 43.8471 21.1667 43.0417V22.625C21.1667 21.8196 21.8196 21.1667 22.625 21.1667H27C27.8054 21.1667 28.4583 21.8196 28.4583 22.625V24.375C30.2324 21.6754 33.3497 20.1728 36.5667 20.4667C41.168 21.034 44.5947 24.9898 44.5 29.625V43.0417Z" fill="white"/>
</svg>
