<svg width="46" height="46" viewBox="0 0 46 46" fill="none" xmlns="http://www.w3.org/2000/svg">
<path d="M45.1875 41.6506L35.1875 31.6386C34.8636 31.3066 34.5029 31.0127 34.1125 30.7625L31.6125 29.0354C36.7548 22.6649 36.8026 13.5775 31.7275 7.15312C26.6524 0.728782 17.809 -1.3179 10.4327 2.22478C3.05651 5.76746 -0.883914 13.954 0.94432 21.9378C2.77255 29.9215 9.88152 35.5717 18.0625 35.5433C22.0326 35.5444 25.8851 34.194 28.9875 31.7137L30.8625 34.2167C31.0849 34.539 31.3359 34.8406 31.6125 35.1178L41.6125 45.1298C41.8472 45.3667 42.1667 45.5 42.5 45.5C42.8333 45.5 43.1528 45.3667 43.3875 45.1298L45.1375 43.3777C45.6121 42.9077 45.6341 42.1473 45.1875 41.6506ZM18.0625 30.5372C11.1589 30.5372 5.56249 24.934 5.56249 18.0222C5.56249 11.1103 11.1589 5.5071 18.0625 5.5071C24.9661 5.5071 30.5625 11.1103 30.5625 18.0222C30.5625 21.3414 29.2455 24.5246 26.9013 26.8717C24.5571 29.2187 21.3777 30.5372 18.0625 30.5372Z" fill="#222223"/>
</svg>
