<svg width="67" height="58" viewBox="0 0 67 58" fill="none" xmlns="http://www.w3.org/2000/svg">
<path d="M42.4315 38.7344C48.9755 38.7344 54.2806 33.8401 54.2806 27.8027V11.4053C54.2806 5.36789 48.9755 0.473633 42.4315 0.473633H12.8087C6.26462 0.473633 0.959595 5.36789 0.959595 11.4053V45.5667C0.959595 46.3213 1.62272 46.9331 2.44073 46.9331C2.8321 46.931 3.20597 46.7832 3.47753 46.5232L9.40208 41.0574C11.1034 39.5291 13.3969 38.6926 15.771 38.7344H42.4315ZM60.2051 11.4053V33.2686C60.2051 39.3059 54.9001 44.2002 48.356 44.2002H12.8087C12.8087 47.2189 15.4612 49.666 18.7333 49.666H51.3183C53.6847 49.6607 55.9557 50.5263 57.6279 52.071L63.5525 57.5368C63.8241 57.7968 64.1979 57.9446 64.5893 57.9467C65.4073 57.9467 66.0704 57.335 66.0704 56.5803V16.8711C66.0706 13.8736 63.454 11.4352 60.2051 11.4053Z" fill="#EF8354"/>
</svg>
