<svg width="61" height="48" viewBox="0 0 61 48" fill="none" xmlns="http://www.w3.org/2000/svg">
<path d="M54.191 0.666748H6.83806C3.56902 0.666748 0.918945 3.27842 0.918945 6.50008V41.5001C0.918945 44.7217 3.56902 47.3334 6.83806 47.3334H54.191C57.46 47.3334 60.1101 44.7217 60.1101 41.5001V6.50008C60.1101 3.27842 57.46 0.666748 54.191 0.666748ZM54.191 6.50008V15.2501H6.83806V6.50008H54.191ZM6.83806 41.5001V19.6251H54.191V41.5001H6.83806ZM12.7572 7.95841H9.79762C8.98036 7.95841 8.31784 8.61133 8.31784 9.41675V12.3334C8.31784 13.1388 8.98036 13.7917 9.79762 13.7917H12.7572C13.5744 13.7917 14.237 13.1388 14.237 12.3334V9.41675C14.237 8.61133 13.5744 7.95841 12.7572 7.95841Z" fill="#FEE440"/>
<path d="M17.1965 7.95841H20.1561C20.9733 7.95841 21.6359 8.61133 21.6359 9.41675V12.3334C21.6359 13.1388 20.9733 13.7917 20.1561 13.7917H17.1965C16.3793 13.7917 15.7167 13.1388 15.7167 12.3334V9.41675C15.7167 8.61133 16.3793 7.95841 17.1965 7.95841Z" fill="#FEE440"/>
<path d="M11.2774 24.0001H31.9943C32.8116 24.0001 33.4741 24.653 33.4741 25.4584C33.4741 26.2638 32.8116 26.9167 31.9943 26.9167H11.2774C10.4601 26.9167 9.79762 26.2638 9.79762 25.4584C9.79762 24.653 10.4601 24.0001 11.2774 24.0001Z" fill="#FEE440"/>
<path d="M11.2774 29.8334H46.7921C47.6094 29.8334 48.2719 30.4863 48.2719 31.2917C48.2719 32.0972 47.6094 32.7501 46.7921 32.7501H11.2774C10.4601 32.7501 9.79762 32.0972 9.79762 31.2917C9.79762 30.4863 10.4601 29.8334 11.2774 29.8334Z" fill="#FEE440"/>
<path d="M11.2774 35.6667H40.873C41.6902 35.6667 42.3528 36.3197 42.3528 37.1251C42.3528 37.9305 41.6902 38.5834 40.873 38.5834H11.2774C10.4601 38.5834 9.79762 37.9305 9.79762 37.1251C9.79762 36.3197 10.4601 35.6667 11.2774 35.6667Z" fill="#FEE440"/>
</svg>
