<svg width="100" height="58" viewBox="0 0 100 58" fill="none" xmlns="http://www.w3.org/2000/svg">
<path d="M99.1412 6.25326L80.405 26.6178C80.1696 26.8621 79.8449 27.0001 79.5057 27.0001C79.1664 27.0001 78.8418 26.8621 78.6063 26.6178L73.3852 21.3954C73.1409 21.16 73.0029 20.8352 73.0029 20.4959C73.0029 20.1566 73.1409 19.8319 73.3852 19.5964L93.7452 0.856047C94.2277 0.395966 94.9864 0.395966 95.4689 0.856047L99.0663 4.45419C99.3206 4.67933 99.4723 4.99835 99.4865 5.33777C99.5006 5.6772 99.3759 6.00774 99.1412 6.25326ZM76.2081 30.3908L69.6879 23.8442C69.2929 23.4292 68.7771 23.1494 68.214 23.0446C67.8063 23.019 67.3975 23.019 66.9899 23.0446C64.3389 23.0425 61.7957 24.0942 59.9201 25.9681C54.9238 30.9655 58.746 36.4377 54.6989 42.4596C54.3683 42.9532 54.431 43.6114 54.8488 44.0338C56.1237 45.0131 57.6881 45.5405 59.2955 45.533C64.7581 45.8999 70.1211 43.9394 74.0597 40.1358C75.9393 38.2537 76.9913 35.6997 76.9825 33.0394C76.9825 32.6396 76.9825 32.2149 76.9825 31.8151C76.8898 31.2674 76.6173 30.7663 76.2081 30.3908Z" fill="#fff"/>
<path d="M1.09867 45.4487C3.86032 41.713 7.45752 49.9145 12.0987 49.9553C19.1387 50.0172 20.3199 41.8445 27.0987 39.9407C38.4105 36.7638 56.4246 46.9985 56.4246 47.9999C56.4246 49.0014 56.5987 47.9523 56.0986 49.4546C55.5986 50.9568 37.214 43.7698 26.5987 47.9524C21.2546 50.058 20.5 55 14.5987 56.4647C8.69735 57.9295 2.2735 57.4594 0.598672 51.9582C-0.143811 49.5194 -0.416174 47.4979 1.09867 45.4487Z" fill="#fff"/>
</svg>
