<svg width="55" height="55" viewBox="0 0 55 55" fill="none" xmlns="http://www.w3.org/2000/svg">
<path d="M42.2917 54.125C37.3993 54.1208 32.5834 52.9117 28.2692 50.6046L26.9379 49.865C17.7397 44.9196 10.1988 37.3786 5.25333 28.1804L4.51375 26.8492C2.14656 22.5104 0.896086 17.6508 0.875002 12.7083V10.7262C0.873752 9.14932 1.50205 7.63715 2.62042 6.52541L7.62 1.52583C8.10554 1.03652 8.79093 0.800669 9.47475 0.887596C10.1586 0.974524 10.7632 1.37435 11.1108 1.96958L17.7671 13.3887C18.4402 14.551 18.2458 16.0209 17.2938 16.9683L11.7025 22.5596C11.2382 23.0188 11.13 23.7282 11.4363 24.305L12.4717 26.2575C16.1904 33.1458 21.8474 38.7925 28.7425 42.4987L30.695 43.5637C31.2718 43.87 31.9812 43.7618 32.4404 43.2975L38.0317 37.7062C38.9791 36.7542 40.449 36.5598 41.6113 37.2329L53.0304 43.8892C53.6256 44.2368 54.0255 44.8414 54.1124 45.5252C54.1993 46.2091 53.9635 46.8945 53.4742 47.38L48.4746 52.3796C47.3629 53.4979 45.8507 54.1262 44.2738 54.125H42.2917Z" fill="white"/>
</svg>
