<svg width="176" height="142" viewBox="0 0 176 142" fill="none" xmlns="http://www.w3.org/2000/svg">
<g filter="url(#filter0_d_43_23)">
<path d="M154.666 0.333496H21.3329C12.1281 0.333496 4.6662 7.79542 4.6662 17.0002V117C4.6662 126.205 12.1281 133.667 21.3329 133.667H154.666C163.871 133.667 171.333 126.205 171.333 117V17.0002C171.333 7.79542 163.871 0.333496 154.666 0.333496ZM154.666 17.0002V42.0002H21.3329V17.0002H154.666ZM21.3329 117V54.5002H154.666V117H21.3329ZM37.9995 21.1668H29.6662C27.365 21.1668 25.4995 23.0323 25.4995 25.3335V33.6668C25.4995 35.968 27.365 37.8335 29.6662 37.8335H37.9995C40.3007 37.8335 42.1662 35.968 42.1662 33.6668V25.3335C42.1662 23.0323 40.3007 21.1668 37.9995 21.1668Z" fill="#222223"/>
<path d="M50.4995 21.1668H58.8329C61.134 21.1668 62.9995 23.0323 62.9995 25.3335V33.6668C62.9995 35.968 61.134 37.8335 58.8329 37.8335H50.4995C48.1983 37.8335 46.3329 35.968 46.3329 33.6668V25.3335C46.3329 23.0323 48.1983 21.1668 50.4995 21.1668Z" fill="#222223"/>
<path d="M33.8329 67.0002H92.1662C94.4674 67.0002 96.3329 68.8656 96.3329 71.1668C96.3329 73.468 94.4674 75.3335 92.1662 75.3335H33.8329C31.5317 75.3335 29.6662 73.468 29.6662 71.1668C29.6662 68.8656 31.5317 67.0002 33.8329 67.0002Z" fill="#222223"/>
<path d="M33.8329 83.6668H133.833C136.134 83.6668 138 85.5323 138 87.8335C138 90.1347 136.134 92.0002 133.833 92.0002H33.8329C31.5317 92.0002 29.6662 90.1347 29.6662 87.8335C29.6662 85.5323 31.5317 83.6668 33.8329 83.6668Z" fill="#222223"/>
<path d="M33.8329 100.333H117.166C119.467 100.333 121.333 102.199 121.333 104.5C121.333 106.801 119.467 108.667 117.166 108.667H33.8329C31.5317 108.667 29.6662 106.801 29.6662 104.5C29.6662 102.199 31.5317 100.333 33.8329 100.333Z" fill="#222223"/>
</g>
<defs>
<filter id="filter0_d_43_23" x="0.666199" y="0.333496" width="174.667" height="141.333" filterUnits="userSpaceOnUse" color-interpolation-filters="sRGB">
<feFlood flood-opacity="0" result="BackgroundImageFix"/>
<feColorMatrix in="SourceAlpha" type="matrix" values="0 0 0 0 0 0 0 0 0 0 0 0 0 0 0 0 0 0 127 0" result="hardAlpha"/>
<feOffset dy="4"/>
<feGaussianBlur stdDeviation="2"/>
<feComposite in2="hardAlpha" operator="out"/>
<feColorMatrix type="matrix" values="0 0 0 0 0 0 0 0 0 0 0 0 0 0 0 0 0 0 0.25 0"/>
<feBlend mode="normal" in2="BackgroundImageFix" result="effect1_dropShadow_43_23"/>
<feBlend mode="normal" in="SourceGraphic" in2="effect1_dropShadow_43_23" result="shape"/>
</filter>
</defs>
</svg>
