<svg width="48" height="45" viewBox="0 0 48 45" fill="none" xmlns="http://www.w3.org/2000/svg">
<path d="M44 15.975V7.4625C44 4.81875 42.72 3.75 39.54 3.75H31.46C28.28 3.75 27 4.81875 27 7.4625V15.9563C27 18.6188 28.28 19.6687 31.46 19.6687H39.54C42.72 19.6875 44 18.6188 44 15.975ZM44 37.0688V29.4937C44 26.5125 42.72 25.3125 39.54 25.3125H31.46C28.28 25.3125 27 26.5125 27 29.4937V37.0688C27 40.05 28.28 41.25 31.46 41.25H39.54C42.72 41.25 44 40.05 44 37.0688ZM21 15.975V7.4625C21 4.81875 19.72 3.75 16.54 3.75H8.46C5.28 3.75 4 4.81875 4 7.4625V15.9563C4 18.6188 5.28 19.6687 8.46 19.6687H16.54C19.72 19.6875 21 18.6188 21 15.975ZM21 37.0688V29.4937C21 26.5125 19.72 25.3125 16.54 25.3125H8.46C5.28 25.3125 4 26.5125 4 29.4937V37.0688C4 40.05 5.28 41.25 8.46 41.25H16.54C19.72 41.25 21 40.05 21 37.0688Z" fill="white"/>
</svg>
