<svg width="208" height="185" viewBox="0 0 208 185" fill="none" xmlns="http://www.w3.org/2000/svg">
<g filter="url(#filter0_d_44_96)">
<path d="M195.667 0.620605H12.3333C7.73096 0.620605 4 4.56528 4 9.43128V132.781C4 137.647 7.73096 141.591 12.3333 141.591H79V159.213H66.5C64.1988 159.213 62.3333 161.185 62.3333 163.618V172.429C62.3333 174.862 64.1988 176.834 66.5 176.834H141.5C143.801 176.834 145.667 174.862 145.667 172.429V163.618C145.667 161.185 143.801 159.213 141.5 159.213H129V141.591H195.667C200.269 141.591 204 137.647 204 132.781V9.43128C204 4.56528 200.269 0.620605 195.667 0.620605ZM187.333 123.97H20.6667V18.2419H187.333V123.97Z" fill="#222223"/>
</g>
<g filter="url(#filter1_d_44_96)">
<path d="M91.5 101.944L87.9834 105.662C87.6187 106.047 87.0163 106.081 86.6111 105.738L46.5694 71.87C46.0971 71.4705 46.0971 70.7424 46.5694 70.3429L86.6111 36.4747C87.0163 36.1319 87.6187 36.1655 87.9834 36.551L91.5 40.2691L94.9169 43.8817C95.32 44.3079 95.2714 44.9879 94.8117 45.3524L63.3215 70.3229C62.8166 70.7233 62.8166 71.4896 63.3215 71.89L94.8117 96.8605C95.2714 97.225 95.32 97.905 94.9169 98.3312L91.5 101.944Z" fill="#222223"/>
<path d="M91.5 101.944L87.9834 105.662C87.6187 106.047 87.0163 106.081 86.6111 105.738L46.5694 71.87C46.0971 71.4705 46.0971 70.7424 46.5694 70.3429L86.6111 36.4747C87.0163 36.1319 87.6187 36.1655 87.9834 36.551L91.5 40.2691L94.9169 43.8817C95.32 44.3079 95.2714 44.9879 94.8117 45.3524L63.3215 70.3229C62.8166 70.7233 62.8166 71.4896 63.3215 71.89L94.8117 96.8605C95.2714 97.225 95.32 97.905 94.9169 98.3312L91.5 101.944Z" fill="#222223"/>
<path d="M91.5 101.944L87.9834 105.662C87.6187 106.047 87.0163 106.081 86.6111 105.738L46.5694 71.87C46.0971 71.4705 46.0971 70.7424 46.5694 70.3429L86.6111 36.4747C87.0163 36.1319 87.6187 36.1655 87.9834 36.551L91.5 40.2691L94.9169 43.8817C95.32 44.3079 95.2714 44.9879 94.8117 45.3524L63.3215 70.3229C62.8166 70.7233 62.8166 71.4896 63.3215 71.89L94.8117 96.8605C95.2714 97.225 95.32 97.905 94.9169 98.3312L91.5 101.944Z" fill="#222223"/>
</g>
<g filter="url(#filter2_d_44_96)">
<path d="M116.5 40.2691L120.017 36.551C120.381 36.1655 120.984 36.1319 121.389 36.4747L161.431 70.3429C161.903 70.7424 161.903 71.4705 161.431 71.87L121.389 105.738C120.984 106.081 120.381 106.047 120.017 105.662L116.5 101.944L113.083 98.3312C112.68 97.905 112.729 97.225 113.188 96.8605L144.679 71.89C145.183 71.4896 145.183 70.7233 144.679 70.3229L113.188 45.3524C112.729 44.9879 112.68 44.3079 113.083 43.8817L116.5 40.2691Z" fill="#222223"/>
<path d="M116.5 40.2691L120.017 36.551C120.381 36.1655 120.984 36.1319 121.389 36.4747L161.431 70.3429C161.903 70.7424 161.903 71.4705 161.431 71.87L121.389 105.738C120.984 106.081 120.381 106.047 120.017 105.662L116.5 101.944L113.083 98.3312C112.68 97.905 112.729 97.225 113.188 96.8605L144.679 71.89C145.183 71.4896 145.183 70.7233 144.679 70.3229L113.188 45.3524C112.729 44.9879 112.68 44.3079 113.083 43.8817L116.5 40.2691Z" fill="#222223"/>
<path d="M116.5 40.2691L120.017 36.551C120.381 36.1655 120.984 36.1319 121.389 36.4747L161.431 70.3429C161.903 70.7424 161.903 71.4705 161.431 71.87L121.389 105.738C120.984 106.081 120.381 106.047 120.017 105.662L116.5 101.944L113.083 98.3312C112.68 97.905 112.729 97.225 113.188 96.8605L144.679 71.89C145.183 71.4896 145.183 70.7233 144.679 70.3229L113.188 45.3524C112.729 44.9879 112.68 44.3079 113.083 43.8817L116.5 40.2691Z" fill="#222223"/>
</g>
<defs>
<filter id="filter0_d_44_96" x="0" y="0.620605" width="208" height="184.213" filterUnits="userSpaceOnUse" color-interpolation-filters="sRGB">
<feFlood flood-opacity="0" result="BackgroundImageFix"/>
<feColorMatrix in="SourceAlpha" type="matrix" values="0 0 0 0 0 0 0 0 0 0 0 0 0 0 0 0 0 0 127 0" result="hardAlpha"/>
<feOffset dy="4"/>
<feGaussianBlur stdDeviation="2"/>
<feComposite in2="hardAlpha" operator="out"/>
<feColorMatrix type="matrix" values="0 0 0 0 0 0 0 0 0 0 0 0 0 0 0 0 0 0 0.25 0"/>
<feBlend mode="normal" in2="BackgroundImageFix" result="effect1_dropShadow_44_96"/>
<feBlend mode="normal" in="SourceGraphic" in2="effect1_dropShadow_44_96" result="shape"/>
</filter>
<filter id="filter1_d_44_96" x="42.2152" y="36.2383" width="56.9752" height="77.7363" filterUnits="userSpaceOnUse" color-interpolation-filters="sRGB">
<feFlood flood-opacity="0" result="BackgroundImageFix"/>
<feColorMatrix in="SourceAlpha" type="matrix" values="0 0 0 0 0 0 0 0 0 0 0 0 0 0 0 0 0 0 127 0" result="hardAlpha"/>
<feOffset dy="4"/>
<feGaussianBlur stdDeviation="2"/>
<feComposite in2="hardAlpha" operator="out"/>
<feColorMatrix type="matrix" values="0 0 0 0 0 0 0 0 0 0 0 0 0 0 0 0 0 0 0.25 0"/>
<feBlend mode="normal" in2="BackgroundImageFix" result="effect1_dropShadow_44_96"/>
<feBlend mode="normal" in="SourceGraphic" in2="effect1_dropShadow_44_96" result="shape"/>
</filter>
<filter id="filter2_d_44_96" x="108.81" y="36.2383" width="56.9753" height="77.7363" filterUnits="userSpaceOnUse" color-interpolation-filters="sRGB">
<feFlood flood-opacity="0" result="BackgroundImageFix"/>
<feColorMatrix in="SourceAlpha" type="matrix" values="0 0 0 0 0 0 0 0 0 0 0 0 0 0 0 0 0 0 127 0" result="hardAlpha"/>
<feOffset dy="4"/>
<feGaussianBlur stdDeviation="2"/>
<feComposite in2="hardAlpha" operator="out"/>
<feColorMatrix type="matrix" values="0 0 0 0 0 0 0 0 0 0 0 0 0 0 0 0 0 0 0.25 0"/>
<feBlend mode="normal" in2="BackgroundImageFix" result="effect1_dropShadow_44_96"/>
<feBlend mode="normal" in="SourceGraphic" in2="effect1_dropShadow_44_96" result="shape"/>
</filter>
</defs>
</svg>
