<svg width="208" height="185" viewBox="0 0 208 185" fill="none" xmlns="http://www.w3.org/2000/svg">
<g filter="url(#filter0_d_935_10)">
<path d="M195.667 0H12.3333C7.73096 0 4 3.94467 4 8.81067V132.16C4 137.026 7.73096 140.971 12.3333 140.971H79V158.592H66.5C64.1988 158.592 62.3333 160.564 62.3333 162.997V171.808C62.3333 174.241 64.1988 176.213 66.5 176.213H141.5C143.801 176.213 145.667 174.241 145.667 171.808V162.997C145.667 160.564 143.801 158.592 141.5 158.592H129V140.971H195.667C200.269 140.971 204 137.026 204 132.16V8.81067C204 3.94467 200.269 0 195.667 0ZM187.333 123.349H20.6667V17.6213H187.333V123.349Z" fill="white"/>
</g>
<path d="M153.141 46.7423L134.405 67.1068C134.169 67.3511 133.845 67.4891 133.505 67.4891C133.166 67.4891 132.842 67.3511 132.606 67.1068L127.385 61.8845C127.141 61.649 127.003 61.3242 127.003 60.9849C127.003 60.6456 127.141 60.3209 127.385 60.0854L147.745 41.3451C148.227 40.885 148.986 40.885 149.469 41.3451L153.066 44.9432C153.32 45.1683 153.472 45.4874 153.486 45.8268C153.5 46.1662 153.376 46.4968 153.141 46.7423ZM130.208 70.8798L123.688 64.3332C123.293 63.9182 122.777 63.6384 122.214 63.5336C121.806 63.508 121.397 63.508 120.99 63.5336C118.339 63.5315 115.795 64.5832 113.92 66.4571C108.924 71.4545 112.746 76.9267 108.699 82.9486C108.368 83.4422 108.431 84.1005 108.849 84.5228C110.123 85.5021 111.688 86.0295 113.295 86.022C118.758 86.3889 124.121 84.4284 128.059 80.6248C129.939 78.7427 130.991 76.1887 130.982 73.5285C130.982 73.1287 130.982 72.7039 130.982 72.3041C130.89 71.7564 130.617 71.2553 130.208 70.8798Z" fill="white"/>
<path d="M55.0987 85.9378C57.8603 82.2021 61.4575 90.4036 66.0987 90.4444C73.1387 90.5063 74.3199 82.3336 81.0987 80.4298C92.4105 77.253 110.425 87.4876 110.425 88.4891C110.425 89.4905 110.599 88.4415 110.099 89.9437C109.599 91.4459 91.214 84.2589 80.5987 88.4415C75.2546 90.5471 74.5 95.4891 68.5987 96.9539C62.6973 98.4186 56.2735 97.9485 54.5987 92.4473C53.8562 90.0085 53.5838 87.987 55.0987 85.9378Z" fill="white"/>
<defs>
<filter id="filter0_d_935_10" x="0" y="0" width="208" height="184.213" filterUnits="userSpaceOnUse" color-interpolation-filters="sRGB">
<feFlood flood-opacity="0" result="BackgroundImageFix"/>
<feColorMatrix in="SourceAlpha" type="matrix" values="0 0 0 0 0 0 0 0 0 0 0 0 0 0 0 0 0 0 127 0" result="hardAlpha"/>
<feOffset dy="4"/>
<feGaussianBlur stdDeviation="2"/>
<feComposite in2="hardAlpha" operator="out"/>
<feColorMatrix type="matrix" values="0 0 0 0 0 0 0 0 0 0 0 0 0 0 0 0 0 0 0.25 0"/>
<feBlend mode="normal" in2="BackgroundImageFix" result="effect1_dropShadow_935_10"/>
<feBlend mode="normal" in="SourceGraphic" in2="effect1_dropShadow_935_10" result="shape"/>
</filter>
</defs>
</svg>
