<svg width="40" height="48" viewBox="0 0 40 48" fill="none" xmlns="http://www.w3.org/2000/svg">
<path d="M19.977 7.50012V1.77512C19.9721 1.43615 20.108 1.11031 20.3524 0.875118L20.8529 0.375119C21.0879 0.138478 21.4077 0.00537109 21.7414 0.00537109C22.075 0.00537109 22.3948 0.138478 22.6298 0.375119L31.489 9.20012C31.969 9.69465 31.969 10.4806 31.489 10.9751L22.6298 19.8001C22.3948 20.0368 22.075 20.1699 21.7414 20.1699C21.4077 20.1699 21.0879 20.0368 20.8529 19.8001L20.3524 19.3001C20.108 19.0649 19.9721 18.7391 19.977 18.4001V12.5001C11.8395 12.524 5.2019 19.019 5.00971 27.1458C4.81752 35.2726 11.1406 42.0734 19.268 42.4812C27.3954 42.8889 34.3688 36.7553 34.9927 28.6501C35.045 27.9991 35.5902 27.498 36.244 27.5001H38.7466C39.0966 27.5037 39.4303 27.6478 39.6726 27.9001C39.9001 28.1528 40.0172 28.4858 39.9979 28.8251C39.2772 39.669 30.0199 47.9534 19.151 47.4812C8.28213 47.0089 -0.220137 37.9529 0.00434445 27.0874C0.228826 16.2219 9.0979 7.524 19.977 7.50012Z" fill="#9B5DE5"/>
</svg>
