<svg width="54" height="54" viewBox="0 0 54 54" fill="none" xmlns="http://www.w3.org/2000/svg">
<path d="M53.25 6.58333V47.4167C53.25 50.6383 50.6383 53.25 47.4167 53.25H36.4792C35.6738 53.25 35.0208 52.5971 35.0208 51.7917V34.2917H41.8458C42.5389 34.2918 43.1364 33.8041 43.275 33.125L44.325 27.875C44.3683 27.6629 44.3152 27.4425 44.18 27.2735C44.0448 27.1045 43.8414 27.0043 43.625 27H35.0208V17.5208C35.0208 17.1181 35.3473 16.7917 35.75 16.7917H43.0417C43.8471 16.7917 44.5 16.1387 44.5 15.3333V10.9583C44.5 10.1529 43.8471 9.5 43.0417 9.5H35.75C30.9175 9.5 27 13.4175 27 18.25V27H23.4125C22.6071 27 21.9542 27.6529 21.9542 28.4583V32.8333C21.9542 33.6387 22.6071 34.2917 23.4125 34.2917H27V51.7917C27 52.5971 26.3471 53.25 25.5417 53.25H6.58333C3.36167 53.25 0.75 50.6383 0.75 47.4167V6.58333C0.75 3.36167 3.36167 0.75 6.58333 0.75H47.4167C50.6383 0.75 53.25 3.36167 53.25 6.58333Z" fill="white"/>
</svg>
