<svg width="256" height="256" viewBox="0 0 256 256" fill="none" xmlns="http://www.w3.org/2000/svg">
<rect width="256" height="256" rx="43" fill="#02001B"/>
<rect x="26" y="106" width="57" height="44" fill="#00FF73"/>
<path d="M52.2443 141H48.9205L58.5341 114.818H61.8068L71.4205 141H68.0966L60.2727 118.96H60.0682L52.2443 141ZM53.4716 130.773H66.8693V133.585H53.4716V130.773Z" fill="#02001B"/>
<path d="M95.7386 117.631V114.818H115.375V117.631H107.142V141H103.972V117.631H95.7386ZM125.244 141.409C123.352 141.409 121.72 140.991 120.348 140.156C118.984 139.312 117.932 138.136 117.19 136.628C116.457 135.111 116.091 133.347 116.091 131.335C116.091 129.324 116.457 127.551 117.19 126.017C117.932 124.474 118.963 123.273 120.284 122.412C121.614 121.543 123.165 121.108 124.938 121.108C125.96 121.108 126.97 121.278 127.967 121.619C128.964 121.96 129.872 122.514 130.69 123.281C131.509 124.04 132.161 125.045 132.646 126.298C133.132 127.551 133.375 129.094 133.375 130.926V132.205H118.239V129.597H130.307C130.307 128.489 130.085 127.5 129.642 126.631C129.207 125.761 128.585 125.075 127.776 124.572C126.974 124.07 126.028 123.818 124.938 123.818C123.736 123.818 122.696 124.116 121.818 124.713C120.949 125.301 120.28 126.068 119.811 127.014C119.342 127.96 119.108 128.974 119.108 130.057V131.795C119.108 133.278 119.364 134.536 119.875 135.567C120.395 136.589 121.115 137.369 122.036 137.906C122.956 138.435 124.026 138.699 125.244 138.699C126.037 138.699 126.753 138.588 127.392 138.366C128.04 138.136 128.598 137.795 129.067 137.344C129.536 136.884 129.898 136.312 130.153 135.631L133.068 136.449C132.761 137.438 132.246 138.307 131.521 139.057C130.797 139.798 129.902 140.378 128.837 140.795C127.771 141.205 126.574 141.409 125.244 141.409ZM145.942 141.409C144.101 141.409 142.516 140.974 141.186 140.105C139.857 139.236 138.834 138.038 138.118 136.513C137.402 134.987 137.044 133.244 137.044 131.284C137.044 129.29 137.411 127.53 138.143 126.004C138.885 124.47 139.916 123.273 141.237 122.412C142.567 121.543 144.118 121.108 145.891 121.108C147.271 121.108 148.516 121.364 149.624 121.875C150.732 122.386 151.639 123.102 152.347 124.023C153.054 124.943 153.493 126.017 153.663 127.244H150.646C150.416 126.349 149.905 125.557 149.112 124.866C148.328 124.168 147.271 123.818 145.942 123.818C144.766 123.818 143.734 124.125 142.848 124.739C141.97 125.344 141.284 126.2 140.79 127.308C140.304 128.408 140.061 129.699 140.061 131.182C140.061 132.699 140.3 134.02 140.777 135.145C141.263 136.27 141.945 137.143 142.822 137.766C143.709 138.388 144.749 138.699 145.942 138.699C146.726 138.699 147.438 138.562 148.077 138.29C148.716 138.017 149.257 137.625 149.7 137.114C150.143 136.602 150.459 135.989 150.646 135.273H153.663C153.493 136.432 153.071 137.476 152.398 138.405C151.733 139.325 150.851 140.058 149.751 140.604C148.661 141.141 147.391 141.409 145.942 141.409ZM161.091 129.188V141H158.074V114.818H161.091V124.432H161.347C161.807 123.418 162.497 122.612 163.418 122.016C164.347 121.411 165.582 121.108 167.125 121.108C168.463 121.108 169.635 121.376 170.641 121.913C171.646 122.442 172.426 123.256 172.98 124.355C173.543 125.446 173.824 126.835 173.824 128.523V141H170.807V128.727C170.807 127.168 170.402 125.962 169.592 125.109C168.791 124.249 167.679 123.818 166.256 123.818C165.267 123.818 164.381 124.027 163.597 124.445C162.821 124.862 162.207 125.472 161.756 126.273C161.313 127.074 161.091 128.045 161.091 129.188ZM179.752 141V114.818H188.599C190.653 114.818 192.332 115.189 193.636 115.93C194.949 116.663 195.92 117.656 196.551 118.909C197.181 120.162 197.497 121.56 197.497 123.102C197.497 124.645 197.181 126.047 196.551 127.308C195.929 128.57 194.966 129.575 193.662 130.325C192.358 131.067 190.687 131.438 188.65 131.438H182.309V128.625H188.548C189.954 128.625 191.083 128.382 191.936 127.896C192.788 127.411 193.406 126.754 193.789 125.928C194.181 125.092 194.377 124.151 194.377 123.102C194.377 122.054 194.181 121.116 193.789 120.29C193.406 119.463 192.784 118.815 191.923 118.347C191.062 117.869 189.92 117.631 188.497 117.631H182.923V141H179.752ZM202.195 141V121.364H205.11V124.33H205.314C205.672 123.358 206.32 122.57 207.257 121.964C208.195 121.359 209.252 121.057 210.428 121.057C210.65 121.057 210.926 121.061 211.259 121.07C211.591 121.078 211.843 121.091 212.013 121.108V124.176C211.911 124.151 211.676 124.112 211.31 124.061C210.952 124.001 210.573 123.972 210.172 123.972C209.218 123.972 208.365 124.172 207.615 124.572C206.874 124.964 206.286 125.51 205.851 126.209C205.425 126.899 205.212 127.687 205.212 128.574V141H202.195ZM222.969 141.409C221.196 141.409 219.641 140.987 218.303 140.143C216.973 139.3 215.934 138.119 215.184 136.602C214.442 135.085 214.071 133.312 214.071 131.284C214.071 129.239 214.442 127.453 215.184 125.928C215.934 124.402 216.973 123.217 218.303 122.374C219.641 121.53 221.196 121.108 222.969 121.108C224.742 121.108 226.293 121.53 227.623 122.374C228.961 123.217 230 124.402 230.742 125.928C231.492 127.453 231.867 129.239 231.867 131.284C231.867 133.312 231.492 135.085 230.742 136.602C230 138.119 228.961 139.3 227.623 140.143C226.293 140.987 224.742 141.409 222.969 141.409ZM222.969 138.699C224.316 138.699 225.424 138.354 226.293 137.663C227.162 136.973 227.806 136.065 228.223 134.94C228.641 133.815 228.85 132.597 228.85 131.284C228.85 129.972 228.641 128.749 228.223 127.615C227.806 126.482 227.162 125.565 226.293 124.866C225.424 124.168 224.316 123.818 222.969 123.818C221.623 123.818 220.515 124.168 219.645 124.866C218.776 125.565 218.132 126.482 217.715 127.615C217.297 128.749 217.088 129.972 217.088 131.284C217.088 132.597 217.297 133.815 217.715 134.94C218.132 136.065 218.776 136.973 219.645 137.663C220.515 138.354 221.623 138.699 222.969 138.699Z" fill="white"/>
<path d="M89.5682 128.966V132.091H76.8409V128.966H89.5682Z" fill="white"/>
</svg>
