<svg width="73" height="60" viewBox="0 0 73 60" fill="none" xmlns="http://www.w3.org/2000/svg">
<path d="M65.25 12H7.25C3.24593 12 0 14.649 0 17.9167V53.4167C0 56.6843 3.24593 59.3333 7.25 59.3333H65.25C69.2541 59.3333 72.5 56.6843 72.5 53.4167V17.9167C72.5 14.649 69.2541 12 65.25 12ZM72.5 28L42.2312 45.8729C38.639 47.9221 33.861 47.9221 30.2688 45.8729L0 28V22.5L33.8937 41.7312C35.3107 42.5338 37.1893 42.5338 38.6062 41.7312L72.5 22.5V28Z" fill="white"/>
<path d="M23 13V4C23 2.89543 23.8954 2 25 2H46C47.1046 2 48 2.89543 48 4V13" stroke="white" stroke-width="4"/>
</svg>
