<svg width="54" height="55" viewBox="0 0 54 55" fill="none" xmlns="http://www.w3.org/2000/svg">
<path d="M50.4587 0.878662H46.2739C45.4953 0.881931 44.7491 1.19018 44.1963 1.73694L22.8862 22.9867C20.8227 22.0671 18.5873 21.593 16.327 21.5957C7.31161 21.5957 0.00317383 28.8835 0.00317383 37.8735C0.00317383 46.8634 7.31161 54.1512 16.327 54.1512C25.3424 54.1512 32.6509 46.8634 32.6509 37.8735C32.6459 35.633 32.1813 33.4172 31.2856 31.3624L33.8974 28.7579C34.4457 28.2067 34.7549 27.4626 34.7581 26.6862V24.5553C34.7587 23.9668 34.9935 23.4026 35.4111 22.9867L36.1828 22.2173C36.5998 21.8009 37.1656 21.5667 37.7558 21.5661H43.0388C43.8584 21.5661 44.5228 20.9036 44.5228 20.0864V14.8775C44.5233 14.289 44.7582 13.7248 45.1757 13.3089H45.3241C45.5758 12.9647 45.9665 12.7482 46.3926 12.717H51.9427C52.7623 12.717 53.4267 12.0545 53.4267 11.2372V3.83825C53.4267 2.20371 52.0979 0.878662 50.4587 0.878662ZM13.181 46.9298C9.90264 46.9298 7.24503 44.2797 7.24503 41.0106C7.24503 37.7415 9.90264 35.0914 13.181 35.0914C16.4593 35.0914 19.1169 37.7415 19.1169 41.0106C19.1169 42.5805 18.4915 44.086 17.3783 45.1961C16.2651 46.3061 14.7553 46.9298 13.181 46.9298Z" fill="#00ff73"/>
</svg>
