<svg width="54" height="54" viewBox="0 0 54 54" fill="none" xmlns="http://www.w3.org/2000/svg">
<path d="M38.6667 0.75H15.3333C7.27918 0.75 0.75 7.27918 0.75 15.3333V38.6667C0.75 46.7208 7.27918 53.25 15.3333 53.25H38.6667C46.7208 53.25 53.25 46.7208 53.25 38.6667V15.3333C53.25 7.27918 46.7208 0.75 38.6667 0.75ZM48.1458 38.6667C48.1298 43.8952 43.8952 48.1298 38.6667 48.1458H15.3333C10.1048 48.1298 5.87018 43.8952 5.85417 38.6667V15.3333C5.87018 10.1048 10.1048 5.87018 15.3333 5.85417H38.6667C43.8952 5.87018 48.1298 10.1048 48.1458 15.3333V38.6667ZM43.7708 13.1458C43.7708 14.7567 42.465 16.0625 40.8542 16.0625C39.2433 16.0625 37.9375 14.7567 37.9375 13.1458C37.9375 11.535 39.2433 10.2292 40.8542 10.2292C42.465 10.2292 43.7708 11.535 43.7708 13.1458ZM27 13.875C19.7513 13.875 13.875 19.7513 13.875 27C13.875 34.2487 19.7513 40.125 27 40.125C34.2487 40.125 40.125 34.2487 40.125 27C40.1328 23.5167 38.7525 20.1738 36.2894 17.7106C33.8263 15.2475 30.4833 13.8672 27 13.875ZM27 35.0208C22.5702 35.0208 18.9792 31.4298 18.9792 27C18.9792 22.5702 22.5702 18.9792 27 18.9792C31.4298 18.9792 35.0208 22.5702 35.0208 27C35.0208 31.4298 31.4298 35.0208 27 35.0208Z" fill="white"/>
</svg>
