<svg width="33" height="30" viewBox="0 0 33 30" fill="none" xmlns="http://www.w3.org/2000/svg">
<path d="M0.84361 2.80078L2.13878 1.29117C2.49643 0.874298 3.1319 0.819924 3.55813 1.16972L28.5169 21.6525L27.3988 9.31296C27.3743 9.05132 27.4576 8.79096 27.6303 8.5897C27.803 8.38844 28.0507 8.26295 28.3184 8.24113L30.3209 8.08377C30.5884 8.0598 30.8546 8.1413 31.0604 8.31018C31.2662 8.47906 31.3945 8.72132 31.4168 8.98314L32.9546 26.0147C32.9898 26.4051 32.865 26.7931 32.6078 27.0935L32.1156 27.6671C31.8551 27.9638 31.4875 28.1506 31.0896 28.1886L13.673 29.6649C13.4054 29.6888 13.1392 29.6073 12.9334 29.4385C12.7277 29.2696 12.5994 29.0273 12.5771 28.7655L12.4007 26.7943C12.3749 26.536 12.4565 26.2784 12.627 26.0796C12.7976 25.8808 13.0428 25.7575 13.3073 25.7376L25.9266 24.6718L0.967787 4.18895C0.541556 3.83915 0.485959 3.21765 0.84361 2.80078Z" fill="white"/>
</svg>
