<svg width="66" height="63" viewBox="0 0 66 63" fill="none" xmlns="http://www.w3.org/2000/svg">
<path d="M64.6656 35.2284L3.72055 62.1008C2.99853 62.4166 2.15607 62.2464 1.6134 61.675L1.20114 61.2405C0.695253 60.7072 0.540544 59.9308 0.803377 59.2442L8.3001 39.9516C9.40641 37.1085 12.1271 35.2207 15.1775 35.1797L31.8144 34.873C32.8133 34.8753 33.638 34.0926 33.6881 33.095L33.7409 31.0839C33.7432 30.085 32.9607 29.2604 31.963 29.2104L15.365 28.0353C12.3209 27.835 9.70295 25.8078 8.74726 22.9108L2.27261 3.25304C1.97293 2.54241 2.13029 1.72121 2.67146 1.17162L3.10595 0.759305C3.67129 0.131424 4.58715 -0.0399359 5.34116 0.341091L64.7934 30.3596C65.437 30.6782 65.8415 31.3369 65.8345 32.055L65.7984 33.4309C65.8304 34.2071 65.3796 34.9223 64.6656 35.2284Z" fill="white"/>
</svg>
