<svg width="108" height="98" viewBox="0 0 108 98" fill="none" xmlns="http://www.w3.org/2000/svg">
<g filter="url(#filter0_d_382_55)">
<path d="M79.819 23.8036L70.026 33.7462C69.9029 33.8654 69.7332 33.9328 69.5559 33.9328C69.3786 33.9328 69.2089 33.8654 69.0859 33.7462L66.3569 31.1965C66.2292 31.0815 66.1571 30.9229 66.1571 30.7573C66.1571 30.5916 66.2292 30.4331 66.3569 30.3181L76.9986 21.1685C77.2508 20.9438 77.6474 20.9438 77.8996 21.1685L79.7798 22.9252C79.9128 23.0351 79.9921 23.1909 79.9995 23.3566C80.0068 23.5223 79.9417 23.6837 79.819 23.8036ZM67.8324 35.5883L64.4244 32.392C64.2179 32.1894 63.9484 32.0528 63.654 32.0016C63.4409 31.9891 63.2273 31.9891 63.0142 32.0016C61.6286 32.0006 60.2993 32.5141 59.319 33.429C56.7075 35.8689 58.7053 38.5406 56.59 41.4806C56.4172 41.7216 56.4499 42.043 56.6683 42.2492C57.3347 42.7274 58.1523 42.9849 58.9925 42.9812C61.8477 43.1603 64.6508 42.2031 66.7094 40.3461C67.6919 39.4272 68.2417 38.1802 68.2371 36.8814C68.2371 36.6862 68.2371 36.4788 68.2371 36.2837C68.1887 36.0163 68.0463 35.7716 67.8324 35.5883Z" fill="white"/>
<path d="M28.5743 42.9397C30.0177 41.1158 31.8979 45.12 34.3237 45.14C38.0034 45.1702 38.6208 41.18 42.1639 40.2505C48.0763 38.6995 57.4919 43.6964 57.4919 44.1853C57.4919 44.6743 57.5829 44.1621 57.3216 44.8955C57.0602 45.6289 47.451 42.12 41.9026 44.1621C39.1093 45.1901 38.7149 47.603 35.6304 48.3181C32.5459 49.0332 29.1883 48.8037 28.3129 46.1179C27.9248 44.9272 27.7825 43.9402 28.5743 42.9397Z" fill="white"/>
</g>
<g filter="url(#filter1_d_382_55)">
<path d="M99.8333 0H8.16667C5.86548 0 4 2.01472 4 4.5V67.5C4 69.9853 5.86548 72 8.16667 72H41.5V81H35.25C34.0994 81 33.1667 82.0074 33.1667 83.25V87.75C33.1667 88.9926 34.0994 90 35.25 90H72.75C73.9006 90 74.8333 88.9926 74.8333 87.75V83.25C74.8333 82.0074 73.9006 81 72.75 81H66.5V72H99.8333C102.135 72 104 69.9853 104 67.5V4.5C104 2.01472 102.135 0 99.8333 0ZM95.6667 63H12.3333V9H95.6667V63Z" fill="white"/>
</g>
<defs>
<filter id="filter0_d_382_55" x="24" y="21" width="60" height="35.666" filterUnits="userSpaceOnUse" color-interpolation-filters="sRGB">
<feFlood flood-opacity="0" result="BackgroundImageFix"/>
<feColorMatrix in="SourceAlpha" type="matrix" values="0 0 0 0 0 0 0 0 0 0 0 0 0 0 0 0 0 0 127 0" result="hardAlpha"/>
<feOffset dy="4"/>
<feGaussianBlur stdDeviation="2"/>
<feComposite in2="hardAlpha" operator="out"/>
<feColorMatrix type="matrix" values="0 0 0 0 0 0 0 0 0 0 0 0 0 0 0 0 0 0 0.25 0"/>
<feBlend mode="normal" in2="BackgroundImageFix" result="effect1_dropShadow_382_55"/>
<feBlend mode="normal" in="SourceGraphic" in2="effect1_dropShadow_382_55" result="shape"/>
</filter>
<filter id="filter1_d_382_55" x="0" y="0" width="108" height="98" filterUnits="userSpaceOnUse" color-interpolation-filters="sRGB">
<feFlood flood-opacity="0" result="BackgroundImageFix"/>
<feColorMatrix in="SourceAlpha" type="matrix" values="0 0 0 0 0 0 0 0 0 0 0 0 0 0 0 0 0 0 127 0" result="hardAlpha"/>
<feOffset dy="4"/>
<feGaussianBlur stdDeviation="2"/>
<feComposite in2="hardAlpha" operator="out"/>
<feColorMatrix type="matrix" values="0 0 0 0 0 0 0 0 0 0 0 0 0 0 0 0 0 0 0.25 0"/>
<feBlend mode="normal" in2="BackgroundImageFix" result="effect1_dropShadow_382_55"/>
<feBlend mode="normal" in="SourceGraphic" in2="effect1_dropShadow_382_55" result="shape"/>
</filter>
</defs>
</svg>
